<?xml version="1.0" encoding="utf-8"?>
<!-- Generator: Adobe Illustrator 14.0.0, SVG Export Plug-In . SVG Version: 6.00 Build 43363)  -->
<!DOCTYPE svg PUBLIC "-//W3C//DTD SVG 1.1//EN" "http://www.w3.org/Graphics/SVG/1.1/DTD/svg11.dtd">
<svg version="1.1" id="Layer_1" xmlns="http://www.w3.org/2000/svg" xmlns:xlink="http://www.w3.org/1999/xlink" x="0px" y="0px"
	 width="566.929px" height="566.928px" viewBox="0 0 566.929 566.928" enable-background="new 0 0 566.929 566.928"
	 xml:space="preserve">
<g>
	<polygon fill-rule="evenodd" clip-rule="evenodd" fill="#166734" points="283.463,566.928 268.801,566.928 254.627,565.463 
		240.455,563.992 226.282,561.547 212.599,558.123 199.404,554.207 186.207,549.805 173.01,544.916 160.795,539.041 
		148.576,532.693 136.356,525.838 125.116,518.502 113.876,510.68 103.124,502.357 92.859,493.555 83.087,483.771 73.8,473.988 
		64.514,463.715 56.203,452.957 48.386,441.705 41.058,430.455 34.21,418.717 27.858,406.486 21.995,393.767 17.107,381.045 
		12.706,367.841 8.797,354.147 5.377,340.449 2.932,326.758 1.468,312.572 0,297.893 0,283.707 0,269.033 1.468,254.848 
		2.932,240.666 5.377,226.479 8.797,212.78 12.706,199.576 17.107,186.369 21.995,173.158 27.858,160.932 34.21,148.701 
		41.058,136.475 48.386,125.226 56.203,113.972 64.514,103.211 73.8,92.941 83.087,83.158 92.859,73.861 103.124,65.059 
		113.876,56.252 125.116,48.426 136.356,41.09 148.576,34.24 160.795,27.881 173.01,22.5 186.207,17.122 199.404,12.719 
		212.599,8.807 226.282,5.869 240.455,3.426 254.627,1.47 268.801,0.49 283.463,0 298.127,0.49 312.299,1.47 326.471,3.426 
		340.644,5.869 354.33,8.807 367.527,12.719 380.722,17.122 393.43,22.5 406.138,27.881 418.35,34.24 430.08,41.09 441.814,48.426 
		453.054,56.252 463.805,65.059 474.066,73.861 483.843,83.158 493.132,92.941 501.925,103.211 510.722,113.972 518.543,125.226 
		525.876,136.475 532.719,148.701 539.07,160.932 544.446,173.158 549.821,186.369 554.22,199.576 558.132,212.78 561.066,226.479 
		563.504,240.666 565.466,254.848 566.441,269.033 566.929,283.707 566.441,297.893 565.466,312.572 563.504,326.758 
		561.066,340.449 558.132,354.147 554.22,367.841 549.821,381.045 544.446,393.767 539.07,406.486 532.719,418.717 525.876,430.455 
		518.543,441.705 510.722,452.957 501.925,463.715 493.132,473.988 483.843,483.771 474.066,493.555 463.805,502.357 
		453.054,510.68 441.814,518.502 430.08,525.838 418.35,532.693 406.138,539.041 393.43,544.916 380.722,549.805 367.527,554.207 
		354.33,558.123 340.644,561.547 326.471,563.992 312.299,565.463 298.127,566.928 283.463,566.928 	"/>
	<polygon fill-rule="evenodd" clip-rule="evenodd" fill="#F2673A" points="138.8,138.43 284.931,138.43 431.062,138.43 
		402.715,147.725 376.322,156.527 351.89,165.334 329.405,174.137 308.386,183.436 289.328,192.234 272.226,201.045 
		256.586,210.334 249.743,214.736 242.9,219.14 237.033,223.544 231.169,227.943 225.798,232.344 221.395,236.75 216.998,241.645 
		213.088,246.047 209.67,250.447 206.733,254.848 204.292,259.248 202.334,263.654 200.379,268.053 199.404,272.46 198.914,277.347 
		198.427,281.754 198.914,286.157 199.404,290.559 200.379,294.96 201.845,299.361 204.292,303.762 206.733,308.655 209.67,313.062 
		213.088,317.459 216.998,321.865 220.907,326.26 225.798,330.666 231.169,335.068 236.544,339.469 242.9,344.357 249.253,348.771 
		256.586,353.171 271.734,361.974 289.328,370.781 308.386,380.073 328.916,388.875 351.89,397.678 376.322,406.486 
		402.715,415.779 430.574,424.586 284.439,424.586 138.8,424.586 138.8,138.43 	"/>
</g>
</svg>
